<?xml version="1.0" encoding="UTF-8"?>
<svg xmlns="http://www.w3.org/2000/svg" width="179.99" height="156" viewBox="0 0 179.99 156">
  <defs>
    <style>
      .cls-1 {
        fill: none;
      }

      .cls-2 {
        fill: #0a2463;
      }

      .cls-3 {
        fill: #3e92cc;
      }
    </style>
  </defs>
  <rect class="cls-1" x="0" width="179.99" height="156"/>
  <g id="Calque_1" data-name="Calque 1">
    <g>
      <path class="cls-2" d="M171.99,0H8C3.58,0,0,3.58,0,8v140C0,152.42,3.58,156,8,156h163.99c4.42,0,8-3.58,8-8V8C179.99,3.58,176.4,0,171.99,0ZM18,148h0c-5.52,0-10-4.48-10-10s4.48-10,10-10h0c5.52,0,10,4.48,10,10s-4.48,10-10,10ZM18,124h0c-5.52,0-10-4.48-10-10s4.48-10,10-10h0c5.52,0,10,4.48,10,10s-4.48,10-10,10ZM18,100h0c-5.52,0-10-4.48-10-10s4.48-10,10-10h0c5.52,0,10,4.48,10,10s-4.48,10-10,10ZM18,76h0c-5.52,0-10-4.48-10-10s4.48-10,10-10h0c5.52,0,10,4.48,10,10s-4.48,10-10,10ZM18,52h0c-5.52,0-10-4.48-10-10s4.48-10,10-10h0c5.52,0,10,4.48,10,10s-4.48,10-10,10ZM18,28h0c-5.52,0-10-4.48-10-10s4.48-10,10-10h0c5.52,0,10,4.48,10,10s-4.48,10-10,10ZM42,148h0c-5.52,0-10-4.48-10-10s4.48-10,10-10h0c5.52,0,10,4.48,10,10s-4.48,10-10,10ZM42,124h0c-5.52,0-10-4.48-10-10s4.48-10,10-10h0c5.52,0,10,4.48,10,10s-4.48,10-10,10ZM42,100h0c-5.52,0-10-4.48-10-10s4.48-10,10-10h0c5.52,0,10,4.48,10,10s-4.48,10-10,10ZM42,76h0c-5.52,0-10-4.48-10-10s4.48-10,10-10h0c5.52,0,10,4.48,10,10s-4.48,10-10,10ZM42,52h0c-5.52,0-10-4.48-10-10s4.48-10,10-10h0c5.52,0,10,4.48,10,10s-4.48,10-10,10ZM42,28h0c-5.52,0-10-4.48-10-10s4.48-10,10-10h0c5.52,0,10,4.48,10,10s-4.48,10-10,10ZM66,148h0c-5.52,0-10-4.48-10-10s4.48-10,10-10h0c5.52,0,10,4.48,10,10s-4.48,10-10,10ZM66,124h0c-5.52,0-10-4.48-10-10s4.48-10,10-10h0c5.52,0,10,4.48,10,10s-4.48,10-10,10ZM66,100h0c-5.52,0-10-4.48-10-10s4.48-10,10-10h0c5.52,0,10,4.48,10,10s-4.48,10-10,10ZM66,76h0c-5.52,0-10-4.48-10-10s4.48-10,10-10h0c5.52,0,10,4.48,10,10s-4.48,10-10,10ZM66,52h0c-5.52,0-10-4.48-10-10s4.48-10,10-10h0c5.52,0,10,4.48,10,10s-4.48,10-10,10ZM66,28h0c-5.52,0-10-4.48-10-10s4.48-10,10-10h0c5.52,0,10,4.48,10,10s-4.48,10-10,10ZM90,148h0c-5.52,0-10-4.48-10-10s4.48-10,10-10h0c5.52,0,10,4.48,10,10s-4.48,10-10,10ZM90,124h0c-5.52,0-10-4.48-10-10s4.48-10,10-10h0c5.52,0,10,4.48,10,10s-4.48,10-10,10ZM90,100h0c-5.52,0-10-4.48-10-10s4.48-10,10-10h0c5.52,0,10,4.48,10,10s-4.48,10-10,10ZM90,76h0c-5.52,0-10-4.48-10-10s4.48-10,10-10h0c5.52,0,10,4.48,10,10s-4.48,10-10,10ZM90,52h0c-5.52,0-10-4.48-10-10s4.48-10,10-10h0c5.52,0,10,4.48,10,10s-4.48,10-10,10ZM90,28h0c-5.52,0-10-4.48-10-10s4.48-10,10-10h0c5.52,0,10,4.48,10,10s-4.48,10-10,10ZM114,148h0c-5.52,0-10-4.48-10-10s4.48-10,10-10h0c5.52,0,10,4.48,10,10s-4.48,10-10,10ZM114,124h0c-5.52,0-10-4.48-10-10s4.48-10,10-10h0c5.52,0,10,4.48,10,10s-4.48,10-10,10ZM114,100h0c-5.52,0-10-4.48-10-10s4.48-10,10-10h0c5.52,0,10,4.48,10,10s-4.48,10-10,10ZM114,76h0c-5.52,0-10-4.48-10-10s4.48-10,10-10h0c5.52,0,10,4.48,10,10s-4.48,10-10,10ZM114,52h0c-5.52,0-10-4.48-10-10s4.48-10,10-10h0c5.52,0,10,4.48,10,10s-4.48,10-10,10ZM114,28h0c-5.52,0-10-4.48-10-10s4.48-10,10-10h0c5.52,0,10,4.48,10,10s-4.48,10-10,10ZM138,148c-5.52,0-10-4.48-10-10s4.48-10,10-10,10,4.48,10,10-4.48,10-10,10ZM138,124c-5.52,0-10-4.48-10-10s4.48-10,10-10,10,4.48,10,10-4.48,10-10,10ZM138,100c-5.52,0-10-4.48-10-10s4.48-10,10-10,10,4.48,10,10-4.48,10-10,10ZM138,76c-5.52,0-10-4.48-10-10s4.48-10,10-10,10,4.48,10,10-4.48,10-10,10ZM138,52c-5.52,0-10-4.48-10-10s4.48-10,10-10,10,4.48,10,10-4.48,10-10,10ZM138,28c-5.52,0-10-4.48-10-10s4.48-10,10-10,10,4.48,10,10-4.48,10-10,10ZM162,148c-5.52,0-10-4.48-10-10s4.48-10,10-10,10,4.48,10,10-4.48,10-10,10ZM162,124c-5.52,0-10-4.48-10-10s4.48-10,10-10,10,4.48,10,10-4.48,10-10,10ZM162,100c-5.52,0-10-4.48-10-10s4.48-10,10-10,10,4.48,10,10-4.48,10-10,10ZM162,76c-5.52,0-10-4.48-10-10s4.48-10,10-10,10,4.48,10,10-4.48,10-10,10ZM162,52c-5.52,0-10-4.48-10-10s4.48-10,10-10,10,4.48,10,10-4.48,10-10,10ZM162,28c-5.52,0-10-4.48-10-10s4.48-10,10-10,10,4.48,10,10-4.48,10-10,10Z"/>
      <path class="cls-3" d="M8.48,23.5c-3.4-5.03-1.44-12.42,3.84-15.35,5.17-3.1,12.55-1.11,15.21,4.35-3.05-4.9-9.9-6.7-14.84-3.7-5.06,2.77-6.93,9.6-4.21,14.7h0Z"/>
      <path class="cls-3" d="M32.48,23.5c-3.4-5.03-1.44-12.42,3.84-15.35,5.17-3.1,12.55-1.11,15.21,4.35-3.05-4.9-9.9-6.7-14.84-3.7-5.06,2.77-6.93,9.6-4.21,14.7h0Z"/>
      <path class="cls-3" d="M56.48,23.5c-3.4-5.03-1.44-12.42,3.84-15.35,5.17-3.1,12.55-1.11,15.21,4.35-3.05-4.9-9.9-6.7-14.84-3.7-5.06,2.77-6.93,9.6-4.21,14.7h0Z"/>
      <path class="cls-3" d="M80.48,23.5c-3.4-5.03-1.44-12.42,3.84-15.35,5.17-3.1,12.55-1.11,15.21,4.35-3.05-4.9-9.9-6.7-14.84-3.7-5.06,2.77-6.93,9.6-4.21,14.7h0Z"/>
      <path class="cls-3" d="M104.48,23.5c-3.4-5.03-1.44-12.42,3.84-15.35,5.17-3.1,12.55-1.11,15.21,4.35-3.05-4.9-9.9-6.7-14.84-3.7-5.06,2.77-6.93,9.6-4.21,14.7h0Z"/>
      <path class="cls-3" d="M128.48,23.5c-3.4-5.03-1.44-12.42,3.84-15.35,5.17-3.1,12.55-1.11,15.21,4.35-3.05-4.9-9.9-6.7-14.84-3.7-5.06,2.77-6.93,9.6-4.21,14.7h0Z"/>
      <path class="cls-3" d="M152.48,23.5c-3.4-5.03-1.44-12.42,3.84-15.35,5.17-3.1,12.55-1.11,15.21,4.35-3.05-4.9-9.9-6.7-14.84-3.7-5.06,2.77-6.93,9.6-4.21,14.7h0Z"/>
      <path class="cls-3" d="M8.48,47.5c-3.4-5.03-1.44-12.42,3.84-15.35,5.17-3.1,12.55-1.11,15.21,4.35-3.05-4.9-9.9-6.7-14.84-3.7-5.06,2.77-6.93,9.6-4.21,14.7h0Z"/>
      <path class="cls-3" d="M32.48,47.5c-3.4-5.03-1.44-12.42,3.84-15.35,5.17-3.1,12.55-1.11,15.21,4.35-3.05-4.9-9.9-6.7-14.84-3.7-5.06,2.77-6.93,9.6-4.21,14.7h0Z"/>
      <path class="cls-3" d="M56.48,47.5c-3.4-5.03-1.44-12.42,3.84-15.35,5.17-3.1,12.55-1.11,15.21,4.35-3.05-4.9-9.9-6.7-14.84-3.7-5.06,2.77-6.93,9.6-4.21,14.7h0Z"/>
      <path class="cls-3" d="M80.48,47.5c-3.4-5.03-1.44-12.42,3.84-15.35,5.17-3.1,12.55-1.11,15.21,4.35-3.05-4.9-9.9-6.7-14.84-3.7-5.06,2.77-6.93,9.6-4.21,14.7h0Z"/>
      <path class="cls-3" d="M104.48,47.5c-3.4-5.03-1.44-12.42,3.84-15.35,5.17-3.1,12.55-1.11,15.21,4.35-3.05-4.9-9.9-6.7-14.84-3.7-5.06,2.77-6.93,9.6-4.21,14.7h0Z"/>
      <path class="cls-3" d="M128.48,47.5c-3.4-5.03-1.44-12.42,3.84-15.35,5.17-3.1,12.55-1.11,15.21,4.35-3.05-4.9-9.9-6.7-14.84-3.7-5.06,2.77-6.93,9.6-4.21,14.7h0Z"/>
      <path class="cls-3" d="M152.48,47.5c-3.4-5.03-1.44-12.42,3.84-15.35,5.17-3.1,12.55-1.11,15.21,4.35-3.05-4.9-9.9-6.7-14.84-3.7-5.06,2.77-6.93,9.6-4.21,14.7h0Z"/>
      <path class="cls-3" d="M8.48,71.49c-3.4-5.03-1.44-12.42,3.84-15.35,5.17-3.1,12.55-1.11,15.21,4.35-3.05-4.9-9.9-6.7-14.84-3.7-5.06,2.77-6.93,9.6-4.21,14.7h0Z"/>
      <path class="cls-3" d="M32.48,71.49c-3.4-5.03-1.44-12.42,3.84-15.35,5.17-3.1,12.55-1.11,15.21,4.35-3.05-4.9-9.9-6.7-14.84-3.7-5.06,2.77-6.93,9.6-4.21,14.7h0Z"/>
      <path class="cls-3" d="M56.48,71.49c-3.4-5.03-1.44-12.42,3.84-15.35,5.17-3.1,12.55-1.11,15.21,4.35-3.05-4.9-9.9-6.7-14.84-3.7-5.06,2.77-6.93,9.6-4.21,14.7h0Z"/>
      <path class="cls-3" d="M80.48,71.49c-3.4-5.03-1.44-12.42,3.84-15.35,5.17-3.1,12.55-1.11,15.21,4.35-3.05-4.9-9.9-6.7-14.84-3.7-5.06,2.77-6.93,9.6-4.21,14.7h0Z"/>
      <path class="cls-3" d="M104.48,71.49c-3.4-5.03-1.44-12.42,3.84-15.35,5.17-3.1,12.55-1.11,15.21,4.35-3.05-4.9-9.9-6.7-14.84-3.7-5.06,2.77-6.93,9.6-4.21,14.7h0Z"/>
      <path class="cls-3" d="M128.48,71.49c-3.4-5.03-1.44-12.42,3.84-15.35,5.17-3.1,12.55-1.11,15.21,4.35-3.05-4.9-9.9-6.7-14.84-3.7-5.06,2.77-6.93,9.6-4.21,14.7h0Z"/>
      <path class="cls-3" d="M152.48,71.49c-3.4-5.03-1.44-12.42,3.84-15.35,5.17-3.1,12.55-1.11,15.21,4.35-3.05-4.9-9.9-6.7-14.84-3.7-5.06,2.77-6.93,9.6-4.21,14.7h0Z"/>
      <path class="cls-3" d="M8.48,95.49c-3.4-5.03-1.44-12.42,3.84-15.35,5.17-3.1,12.55-1.11,15.21,4.35-3.05-4.9-9.9-6.7-14.84-3.7-5.06,2.77-6.93,9.6-4.21,14.7h0Z"/>
      <path class="cls-3" d="M32.48,95.49c-3.4-5.03-1.44-12.42,3.84-15.35,5.17-3.1,12.55-1.11,15.21,4.35-3.05-4.9-9.9-6.7-14.84-3.7-5.06,2.77-6.93,9.6-4.21,14.7h0Z"/>
      <path class="cls-3" d="M56.48,95.49c-3.4-5.03-1.44-12.42,3.84-15.35,5.17-3.1,12.55-1.11,15.21,4.35-3.05-4.9-9.9-6.7-14.84-3.7-5.06,2.77-6.93,9.6-4.21,14.7h0Z"/>
      <path class="cls-3" d="M80.48,95.49c-3.4-5.03-1.44-12.42,3.84-15.35,5.17-3.1,12.55-1.11,15.21,4.35-3.05-4.9-9.9-6.7-14.84-3.7-5.06,2.77-6.93,9.6-4.21,14.7h0Z"/>
      <path class="cls-3" d="M104.48,95.49c-3.4-5.03-1.44-12.42,3.84-15.35,5.17-3.1,12.55-1.11,15.21,4.35-3.05-4.9-9.9-6.7-14.84-3.7-5.06,2.77-6.93,9.6-4.21,14.7h0Z"/>
      <path class="cls-3" d="M128.48,95.49c-3.4-5.03-1.44-12.42,3.84-15.35,5.17-3.1,12.55-1.11,15.21,4.35-3.05-4.9-9.9-6.7-14.84-3.7-5.06,2.77-6.93,9.6-4.21,14.7h0Z"/>
      <path class="cls-3" d="M152.48,95.49c-3.4-5.03-1.44-12.42,3.84-15.35,5.17-3.1,12.55-1.11,15.21,4.35-3.05-4.9-9.9-6.7-14.84-3.7-5.06,2.77-6.93,9.6-4.21,14.7h0Z"/>
      <path class="cls-3" d="M8.48,119.49c-3.4-5.03-1.44-12.42,3.84-15.35,5.17-3.1,12.55-1.11,15.21,4.35-3.05-4.9-9.9-6.7-14.84-3.7-5.06,2.77-6.93,9.6-4.21,14.7h0Z"/>
      <path class="cls-3" d="M32.48,119.49c-3.4-5.03-1.44-12.42,3.84-15.35,5.17-3.1,12.55-1.11,15.21,4.35-3.05-4.9-9.9-6.7-14.84-3.7-5.06,2.77-6.93,9.6-4.21,14.7h0Z"/>
      <path class="cls-3" d="M56.48,119.49c-3.4-5.03-1.44-12.42,3.84-15.35,5.17-3.1,12.55-1.11,15.21,4.35-3.05-4.9-9.9-6.7-14.84-3.7-5.06,2.77-6.93,9.6-4.21,14.7h0Z"/>
      <path class="cls-3" d="M80.48,119.49c-3.4-5.03-1.44-12.42,3.84-15.35,5.17-3.1,12.55-1.11,15.21,4.35-3.05-4.9-9.9-6.7-14.84-3.7-5.06,2.77-6.93,9.6-4.21,14.7h0Z"/>
      <path class="cls-3" d="M104.48,119.49c-3.4-5.03-1.44-12.42,3.84-15.35,5.17-3.1,12.55-1.11,15.21,4.35-3.05-4.9-9.9-6.7-14.84-3.7-5.06,2.77-6.93,9.6-4.21,14.7h0Z"/>
      <path class="cls-3" d="M128.48,119.49c-3.4-5.03-1.44-12.42,3.84-15.35,5.17-3.1,12.55-1.11,15.21,4.35-3.05-4.9-9.9-6.7-14.84-3.7-5.06,2.77-6.93,9.6-4.21,14.7h0Z"/>
      <path class="cls-3" d="M152.48,119.49c-3.4-5.03-1.44-12.42,3.84-15.35,5.17-3.1,12.55-1.11,15.21,4.35-3.05-4.9-9.9-6.7-14.84-3.7-5.06,2.77-6.93,9.6-4.21,14.7h0Z"/>
      <path class="cls-3" d="M8.48,143.49c-3.4-5.03-1.44-12.42,3.84-15.35,5.17-3.1,12.55-1.11,15.21,4.35-3.05-4.9-9.9-6.7-14.84-3.7-5.06,2.77-6.93,9.6-4.21,14.7h0Z"/>
      <path class="cls-3" d="M32.48,143.49c-3.4-5.03-1.44-12.42,3.84-15.35,5.17-3.1,12.55-1.11,15.21,4.35-3.05-4.9-9.9-6.7-14.84-3.7-5.06,2.77-6.93,9.6-4.21,14.7h0Z"/>
      <path class="cls-3" d="M56.48,143.49c-3.4-5.03-1.44-12.42,3.84-15.35,5.17-3.1,12.55-1.11,15.21,4.35-3.05-4.9-9.9-6.7-14.84-3.7-5.06,2.77-6.93,9.6-4.21,14.7h0Z"/>
      <path class="cls-3" d="M80.48,143.49c-3.4-5.03-1.44-12.42,3.84-15.35,5.17-3.1,12.55-1.11,15.21,4.35-3.05-4.9-9.9-6.7-14.84-3.7-5.06,2.77-6.93,9.6-4.21,14.7h0Z"/>
      <path class="cls-3" d="M104.48,143.49c-3.4-5.03-1.44-12.42,3.84-15.35,5.17-3.1,12.55-1.11,15.21,4.35-3.05-4.9-9.9-6.7-14.84-3.7-5.06,2.77-6.93,9.6-4.21,14.7h0Z"/>
      <path class="cls-3" d="M128.48,143.49c-3.4-5.03-1.44-12.42,3.84-15.35,5.17-3.1,12.55-1.11,15.21,4.35-3.05-4.9-9.9-6.7-14.84-3.7-5.06,2.77-6.93,9.6-4.21,14.7h0Z"/>
      <path class="cls-3" d="M152.48,143.49c-3.4-5.03-1.44-12.42,3.84-15.35,5.17-3.1,12.55-1.11,15.21,4.35-3.05-4.9-9.9-6.7-14.84-3.7-5.06,2.77-6.93,9.6-4.21,14.7h0Z"/>
    </g>
    <path class="cls-3" d="M171.99,1c3.86,0,7,3.14,7,7v140c0,3.86-3.14,7-7,7H8c-3.86,0-7-3.14-7-7V8C1,4.14,4.14,1,8,1h163.99M171.99,0H8C3.58,0,0,3.58,0,8v140C0,152.42,3.58,156,8,156h163.99c4.42,0,8-3.58,8-8V8C179.99,3.58,176.4,0,171.99,0h0Z"/>
  </g>
</svg>