<?xml version="1.0" encoding="UTF-8"?>
<svg xmlns="http://www.w3.org/2000/svg" width="522.14" height="94.11" viewBox="0 0 522.14 94.11">
  <defs>
    <style>
      .cls-1 {
        fill: none;
      }

      .cls-2 {
        fill: #ffbc42;
      }

      .cls-3 {
        fill: #fffaff;
      }
    </style>
  </defs>
  <rect class="cls-1" x="0" width="522.14" height="94.11"/>
  <g id="Calque_1" data-name="Calque 1">
    <g>
      <path class="cls-3" d="M57.47,20.49h-23.61l-8.81,41.71c-.74,3.17-2.35,8.98-4.78,11.41h20.84s-1.91-5.43-.17-13.58h8.56c12.47,0,23.46-11.36,23.46-24.5,0-8.71-5.61-15.05-15.49-15.05ZM48.83,47.94h-5.31l3.25-15.35h5.31c3.54,0,4.87,2.21,4.87,5.09,0,4.8-2.66,10.26-8.12,10.26Z"/>
      <path class="cls-3" d="M125.29,20.49h-10.62c-1.12,0-2.1.79-2.33,1.89l-6.61,31.17c-1.25,5.75-4.94,8.78-9.74,8.78-5.39,0-7.23-3.25-6.05-8.78l6.4-30.18c.31-1.48-.82-2.87-2.33-2.87h-10.62c-1.13,0-2.1.79-2.33,1.89l-6.24,29.54c-3.32,15.57,5.68,22.58,18.59,22.58,15.86,0,24.94-7.45,27.96-21.77l6.25-29.37c.32-1.48-.81-2.88-2.33-2.88Z"/>
      <path class="cls-3" d="M170.29,36.87c0-4.06,4.28-5.24,8.93-5.24,3.89,0,8.44.5,12.02,1.05,1.21.18,2.35-.61,2.6-1.8l1.61-7.66c.28-1.33-.65-2.62-2.01-2.76-3.8-.4-7.89-.85-12.22-.85-11.88,0-27,3.91-27,21.03,0,16.16,21.03,10.11,21.03,16.31,0,3.84-3.54,5.61-8.48,5.61-4.65,0-12.03-1.11-16.23-2.07l-2.51,12.25c4.87.96,11.14,1.77,17.41,1.77,14.53,0,26.41-7.82,26.41-21.84,0-15.86-21.54-9.52-21.54-15.79Z"/>
      <path class="cls-3" d="M214.85,36.87c0-4.06,4.28-5.24,8.93-5.24,3.85,0,8.35.49,11.92,1.03,1.27.19,2.46-.64,2.72-1.89l1.56-7.44c.29-1.4-.69-2.75-2.11-2.9-3.77-.4-7.81-.83-12.1-.83-11.88,0-27,3.91-27,21.03,0,16.16,21.03,10.11,21.03,16.31,0,3.84-3.54,5.61-8.49,5.61-3.88,0-9.65-.77-13.9-1.58-1.3-.25-2.55.59-2.82,1.89l-1.53,7.46c-.27,1.34.62,2.64,1.97,2.87,4.43.75,9.69,1.32,14.95,1.32,14.54,0,26.41-7.82,26.41-21.84,0-15.86-21.54-9.52-21.54-15.79Z"/>
      <path class="cls-3" d="M346.16,20.49h-10.2c-1.14,0-2.12.8-2.36,1.91l-5.94,27.97-10.13-28.28c-.34-.96-1.25-1.6-2.27-1.6h-12.73c-1.14,0-2.12.8-2.36,1.91l-7.62,36.1c-.01.06-.03.13-.05.22l-1.1,5.2c-1.22,5.78-3.4,9.7-3.4,9.7h18.67s-1.89-.9-.03-9.82l4.04-19.03,11.07,28.85h16.08l10.67-50.21c.32-1.5-.82-2.91-2.36-2.91Z"/>
      <path class="cls-3" d="M394.03,31.37l1.63-7.65c.27-1.29-.54-2.57-1.83-2.86-4.16-.94-8.29-1.26-12.52-1.26-22.58,0-32.69,18.52-32.69,36.6,0,11.88,7.75,18.3,21.1,18.3,4.43,0,11.14-.74,15.86-2.51l2.58-12.32c-4.13,1.62-9.44,2.73-13.65,2.73-5.39,0-9.67-2.43-9.67-9.81,0-10.85,5.02-20.73,16.97-20.73,3.13,0,6.65.67,9.24,1.35,1.33.35,2.68-.49,2.96-1.83Z"/>
      <path class="cls-3" d="M439.3,20.49h-34.51c-1.09,0-2.02.76-2.25,1.82l-10.83,51.3h40.99s-1.72-.84-.24-8.77l.71-3.33h-23.46l1.84-8.71h18.52l2.51-11.81h-18.52l1.77-8.34h21.87c1.1,0,2.05-.77,2.28-1.85l1.59-7.51c.31-1.45-.8-2.82-2.28-2.82Z"/>
      <path class="cls-2" d="M499.7,50.52h-4.47l2.95-14.09h-.31c-7.16,0-13.69,4.1-16.81,10.55l-.74,3.54h-9.08l14.53-26.4c.9-1.63-.28-3.63-2.15-3.63h-9.6c-.9,0-1.72.49-2.15,1.27l-15.66,28.59c-.11.21-.2.43-.24.67l-1.7,8.3c-.3,1.48.82,2.86,2.33,2.86h21.2c-.73,3.17-2.35,9-4.79,11.44h19.33s-1.56-.77-.43-7.69l.8-3.75h5.4c1.02,0,1.91-.71,2.12-1.71l1.57-7.31c.29-1.35-.74-2.63-2.12-2.63Z"/>
      <path class="cls-3" d="M143.14,60.39l7.87-37.02c.31-1.48-.81-2.88-2.33-2.88h-10.62c-1.13,0-2.1.79-2.33,1.89l-7.95,37.66h0s0,0,0,0l-.46,2.15c-.74,3.17-2.35,8.98-4.78,11.42h20.84s-1.85-5.28-.24-13.22Z"/>
      <path class="cls-3" d="M284.94,63.92l-4.41-41.31c-.13-1.25-1.19-2.19-2.44-2.19h-16.38c-.91,0-1.74.5-2.17,1.31l-20.69,39.15h0s-5.01,9.31-8.44,12.74h17.79s0,0,0,0h3.05s-.22-1.37,1.53-9.52h16.97c.39,6.3-2.04,9.52-2.04,9.52h19.64s-1.54-1.59-2.41-9.7h0ZM258.53,52.07l9-19.48h.66l.74,19.48h-10.4Z"/>
    </g>
  </g>
</svg>