<?xml version="1.0" encoding="UTF-8"?>
<svg xmlns="http://www.w3.org/2000/svg" width="174.4" height="138.56" viewBox="0 0 174.4 138.56">
  <defs>
    <style>
      .cls-1 {
        fill: #d64770;
      }

      .cls-2 {
        fill: none;
      }

      .cls-3 {
        fill: #dd1754;
      }

      .cls-4 {
        fill: #d30d4f;
      }

      .cls-5 {
        fill: #d10050;
      }

      .cls-6 {
        fill: #1e1b18;
      }

      .cls-7 {
        fill: #d8315b;
      }
    </style>
  </defs>
  <rect class="cls-2" width="174.4" height="138.56"/>
  <g id="Calque_1" data-name="Calque 1">
    <g>
      <ellipse class="cls-7" cx="76.97" cy="107.55" rx="75.97" ry="30.01"/>
      <rect class="cls-7" x="1" y="89.01" width="151.94" height="18.55"/>
      <path class="cls-3" d="M48.66,116.85c-12.43-1.97-23.22-5.21-31.38-9.3-5.47-2.75-9.76-5.88-12.56-9.27-2.4-2.92-3.72-6.04-3.72-9.27v18.55c0,12.62,19.74,23.42,47.68,27.85v-18.54h-.02Z"/>
      <ellipse class="cls-7" cx="76.97" cy="89.01" rx="75.97" ry="30.01"/>
      <ellipse class="cls-3" cx="76.12" cy="88.35" rx="55.66" ry="20.66"/>
      <path class="cls-1" d="M76.12,67.69c-30.74,0-55.66,9.25-55.66,20.66,0,.67.09,1.33.26,1.98,2.69-10.48,26.46-18.68,55.4-18.68s52.71,8.2,55.4,18.68c.17-.65.26-1.31.26-1.98,0-11.41-24.92-20.66-55.66-20.66Z"/>
      <g>
        <rect class="cls-5" x="47.67" y="116.85" width="2" height="18.55" transform="translate(-.14 .05) rotate(-.06)"/>
        <rect class="cls-5" x="37.32" y="114.8" width="2" height="18.55" transform="translate(-.13 .04) rotate(-.06)"/>
        <rect class="cls-5" x="27.64" y="112.2" width="2" height="18.55" transform="translate(-.13 .03) rotate(-.06)"/>
        <rect class="cls-5" x="18.14" y="108.51" width="2" height="18.55" transform="translate(-.13 .02) rotate(-.06)"/>
        <polygon class="cls-5" points="12.92 105.05 10.92 103.82 10.92 123.07 12.92 123.07 12.92 105.05"/>
        <polygon class="cls-5" points="6.51 100.27 4.5 98.04 4.5 118.26 6.51 118.26 6.51 100.27"/>
        <rect class="cls-5" x="114.6" y="114.8" width="2" height="18.55"/>
        <rect class="cls-5" x="124.28" y="112.2" width="2" height="18.55"/>
        <rect class="cls-5" x="133.77" y="108.51" width="2" height="18.55"/>
        <polygon class="cls-5" points="140.99 105.05 143 103.82 143 123.07 140.99 123.07 140.99 105.05"/>
        <polygon class="cls-5" points="147.4 100.27 149.41 98.07 149.41 118.26 147.4 118.26 147.4 100.27"/>
        <rect class="cls-5" x="59.24" y="118.32" width="2" height="18.55" transform="translate(-.14 .07) rotate(-.06)"/>
        <rect class="cls-5" x="73.32" y="119.01" width="2" height="18.55" transform="translate(-.14 .08) rotate(-.06)"/>
        <rect class="cls-5" x="87.53" y="118.64" width="2" height="18.55" transform="translate(-.14 .1) rotate(-.06)"/>
        <rect class="cls-5" x="100.46" y="117.43" width="2" height="18.55" transform="translate(-.14 .11) rotate(-.06)"/>
      </g>
      <path class="cls-6" d="M7.75,101.37c27.09,20.63,90.22,20.36,121.48,9.01,5.6-2.03,11.16-4.48,15.92-8.12-4.52,4-10.05,6.69-15.57,9.03-31.11,12.94-95.53,13.06-121.83-9.92h0Z"/>
      <path class="cls-6" d="M76.97,138.56c-9.79,0-19.37-.73-28.45-2.17-.88-.14-1.74-.28-2.59-.43-3.43-.61-6.74-1.31-9.86-2.09,0,0-.1-.02-.1-.02-2.43-.62-4.7-1.26-6.82-1.93-.67-.21-1.31-.42-1.95-.64l-.44-.15c-.62-.21-1.24-.43-1.84-.65-1.32-.49-2.56-.97-3.75-1.48l-.28-.11c-.5-.21-.99-.43-1.47-.65l-.68-.31c-.45-.21-.9-.42-1.34-.64l-.68-.34c-.75-.38-1.47-.76-2.18-1.15l-.24-.13c-.17-.09-.34-.18-.5-.28-.33-.19-.65-.38-.97-.58-.31-.19-.59-.36-.86-.53-.31-.19-.61-.39-.9-.58-.3-.2-.59-.4-.88-.6l-.22-.15c-.18-.13-.36-.25-.53-.38-.49-.36-.96-.72-1.41-1.09-.15-.12-.29-.24-.43-.36l-.16-.13c-.29-.24-.57-.49-.85-.74-.19-.18-.38-.35-.56-.53-.28-.27-.55-.54-.81-.81l-.13-.14c-.1-.11-.21-.21-.31-.32-.38-.42-.74-.83-1.08-1.26-.06-.08-.13-.16-.19-.25l-.09-.13c-.25-.33-.49-.65-.71-.98-.11-.16-.21-.32-.31-.48-.2-.32-.39-.65-.57-.97l-.07-.13c-.06-.1-.11-.21-.17-.31-.25-.5-.46-.96-.63-1.4-.02-.05-.04-.11-.06-.17-.17-.46-.3-.88-.42-1.3-.04-.14-.07-.27-.1-.41-.1-.41-.17-.77-.22-1.13l-.02-.11c-.02-.12-.04-.23-.05-.35-.06-.56-.1-1.05-.1-1.51v-18.55c0-8.45,8.13-16.32,22.88-22.15,14.46-5.71,33.67-8.86,54.09-8.86s39.62,3.15,54.09,8.86c14.76,5.83,22.88,13.69,22.88,22.15v18.55c0,8.45-8.13,16.32-22.88,22.15-14.46,5.71-33.67,8.86-54.09,8.86ZM36.55,131.93c3.08.77,6.34,1.46,9.68,2.05.89.16,1.74.3,2.6.44,8.99,1.43,18.45,2.15,28.14,2.15,41.34,0,74.97-13.01,74.97-29.01v-18.55c0-16-33.63-29.01-74.97-29.01S2,73.01,2,89.01v18.55c0,.38.03.8.08,1.28.01.09.02.18.04.27l.02.12c.05.31.11.61.18.92.04.17.07.29.1.4.1.36.21.72.35,1.07,0,.01.04.12.05.13.17.44.35.84.57,1.28.04.08.09.16.13.24l.08.14c.16.29.33.58.51.87.09.14.18.29.28.44.2.3.41.59.64.89l.25.34c.31.39.64.77.99,1.15.08.09.17.18.26.27l.14.15c.24.25.49.51.75.76.17.17.35.33.53.49.26.23.52.46.8.69l.16.14c.13.11.26.22.39.33.43.35.87.69,1.33,1.03.16.12.32.23.49.35l.23.16c.27.19.55.38.84.58.28.19.57.37.86.56.26.16.53.33.8.49.34.21.65.39.96.57.15.09.31.17.46.26l.25.14c.68.38,1.38.75,2.11,1.11l.66.33c.43.21.86.41,1.3.62l.66.3c.47.21.95.42,1.43.63l.27.11c1.16.49,2.37.97,3.58,1.41.67.25,1.28.46,1.89.67l.44.15c.62.21,1.26.42,1.9.63,2.09.66,4.32,1.29,6.62,1.88l-.05,1.02.24-.97Z"/>
    </g>
    <g>
      <ellipse class="cls-7" cx="97.43" cy="88.04" rx="75.97" ry="30.01"/>
      <rect class="cls-7" x="21.46" y="69.49" width="151.94" height="18.55"/>
      <path class="cls-3" d="M69.12,97.34c-12.43-1.97-23.22-5.21-31.38-9.3-5.47-2.75-9.76-5.88-12.56-9.27-2.4-2.92-3.72-6.04-3.72-9.27v18.55c0,12.62,19.74,23.42,47.68,27.85v-18.54h-.02Z"/>
      <ellipse class="cls-7" cx="97.43" cy="69.49" rx="75.97" ry="30.01"/>
      <ellipse class="cls-3" cx="96.58" cy="68.83" rx="55.66" ry="20.66"/>
      <path class="cls-1" d="M96.58,48.17c-30.74,0-55.66,9.25-55.66,20.66,0,.67.09,1.33.26,1.98,2.69-10.48,26.46-18.68,55.4-18.68s52.71,8.2,55.4,18.68c.17-.65.26-1.31.26-1.98,0-11.41-24.92-20.66-55.66-20.66Z"/>
      <rect class="cls-5" x="68.13" y="97.34" width="2" height="18.55" transform="translate(-.12 .07) rotate(-.06)"/>
      <rect class="cls-5" x="57.78" y="95.28" width="2" height="18.55" transform="translate(-.11 .06) rotate(-.06)"/>
      <rect class="cls-5" x="48.1" y="92.69" width="2" height="18.55" transform="translate(-.11 .05) rotate(-.06)"/>
      <rect class="cls-5" x="38.6" y="88.99" width="2" height="18.55" transform="translate(-.11 .04) rotate(-.06)"/>
      <polygon class="cls-5" points="33.38 85.53 31.38 84.3 31.38 103.55 33.38 103.55 33.38 85.53"/>
      <polygon class="cls-5" points="26.97 80.75 24.96 78.52 24.96 98.75 26.97 98.75 26.97 80.75"/>
      <rect class="cls-5" x="135.06" y="95.28" width="2" height="18.55"/>
      <rect class="cls-5" x="144.74" y="92.69" width="2" height="18.55"/>
      <rect class="cls-5" x="154.23" y="88.99" width="2" height="18.55"/>
      <polygon class="cls-5" points="161.45 85.53 163.46 84.3 163.46 103.55 161.45 103.55 161.45 85.53"/>
      <polygon class="cls-5" points="167.87 80.75 169.87 78.55 169.87 98.75 167.87 98.75 167.87 80.75"/>
      <rect class="cls-5" x="79.7" y="98.8" width="2" height="18.55" transform="translate(-.12 .09) rotate(-.06)"/>
      <rect class="cls-5" x="93.78" y="99.5" width="2" height="18.55" transform="translate(-.12 .1) rotate(-.06)"/>
      <rect class="cls-5" x="107.99" y="99.12" width="2" height="18.55" transform="translate(-.12 .12) rotate(-.06)"/>
      <rect class="cls-5" x="120.92" y="97.91" width="2" height="18.55" transform="translate(-.12 .13) rotate(-.06)"/>
      <path class="cls-6" d="M28.21,81.85c27.09,20.63,90.22,20.36,121.48,9.01,5.6-2.03,11.16-4.48,15.92-8.12-4.52,4-10.05,6.69-15.57,9.03-31.11,12.94-95.53,13.06-121.83-9.92h0Z"/>
      <path class="cls-6" d="M97.43,119.05c-9.79,0-19.37-.73-28.45-2.17-.88-.14-1.74-.28-2.59-.43-3.43-.61-6.74-1.31-9.86-2.09,0,0-.1-.02-.1-.02-2.43-.62-4.7-1.26-6.82-1.93-.67-.21-1.31-.42-1.95-.64l-.44-.15c-.62-.21-1.24-.43-1.84-.65-1.32-.49-2.56-.97-3.75-1.48l-.28-.11c-.5-.21-.99-.43-1.47-.65l-.68-.31c-.45-.21-.9-.42-1.34-.64l-.68-.34c-.75-.38-1.47-.76-2.18-1.15l-.24-.13c-.17-.09-.34-.18-.5-.28-.33-.19-.65-.38-.97-.58-.31-.19-.59-.36-.86-.53-.31-.19-.61-.39-.9-.58-.3-.2-.59-.4-.88-.6l-.22-.15c-.18-.13-.36-.25-.53-.38-.49-.36-.96-.72-1.41-1.09-.15-.12-.29-.24-.43-.36l-.16-.13c-.29-.24-.57-.49-.85-.74-.19-.18-.38-.35-.56-.53-.28-.27-.55-.54-.81-.81l-.13-.14c-.1-.11-.21-.21-.31-.32-.38-.42-.74-.83-1.08-1.26-.06-.08-.13-.16-.19-.25l-.09-.13c-.25-.33-.49-.65-.71-.98-.11-.16-.21-.32-.31-.48-.2-.32-.39-.65-.57-.97l-.07-.13c-.06-.1-.11-.21-.17-.31-.25-.5-.46-.96-.63-1.4-.02-.05-.04-.11-.06-.17-.17-.46-.3-.88-.42-1.3-.04-.14-.07-.27-.1-.41-.1-.41-.17-.77-.22-1.13l-.02-.11c-.02-.12-.04-.23-.05-.35-.06-.56-.1-1.05-.1-1.51v-18.55c0-8.45,8.13-16.32,22.88-22.15,14.46-5.71,33.67-8.86,54.09-8.86s39.62,3.15,54.09,8.86c14.76,5.83,22.88,13.69,22.88,22.15v18.55c0,8.45-8.13,16.32-22.88,22.15-14.46,5.71-33.67,8.86-54.09,8.86ZM57.01,112.41c3.08.77,6.34,1.46,9.68,2.05.89.16,1.74.3,2.6.44,8.99,1.43,18.45,2.15,28.14,2.15,41.34,0,74.97-13.01,74.97-29.01v-18.55c0-16-33.63-29.01-74.97-29.01s-74.97,13.01-74.97,29.01v18.55c0,.38.03.8.08,1.28.01.09.02.18.04.27l.02.12c.05.31.11.61.18.92.04.17.07.29.1.4.1.36.21.72.35,1.07,0,.01.04.12.05.13.17.44.35.84.57,1.28.04.08.09.16.13.24l.08.14c.16.29.33.58.51.87.09.14.18.29.28.44.2.3.41.59.64.89l.25.34c.31.39.64.77.99,1.15.08.09.17.18.26.27l.14.15c.24.25.49.51.75.76.17.17.35.33.53.49.26.23.52.46.8.69l.16.14c.13.11.26.22.39.33.43.35.87.69,1.33,1.03.16.12.32.23.49.35l.23.16c.27.19.55.38.84.58.28.19.57.37.86.56.26.16.53.33.8.49.34.21.65.39.96.57.15.09.31.17.46.26l.25.14c.68.38,1.38.75,2.11,1.11l.66.33c.43.21.86.41,1.3.62l.66.3c.47.21.95.42,1.43.63l.27.11c1.16.49,2.37.97,3.58,1.41.67.25,1.28.46,1.89.67l.44.15c.62.21,1.26.42,1.9.63,2.09.66,4.32,1.29,6.62,1.88l-.05,1.02.24-.97Z"/>
    </g>
    <g>
      <ellipse class="cls-7" cx="76.97" cy="69.07" rx="75.97" ry="30.01"/>
      <rect class="cls-7" x="1" y="50.52" width="151.94" height="18.55"/>
      <path class="cls-3" d="M48.66,78.37c-12.43-1.97-23.22-5.21-31.38-9.3-5.47-2.75-9.76-5.88-12.56-9.27-2.4-2.92-3.72-6.04-3.72-9.27v18.55c0,12.62,19.74,23.42,47.68,27.85v-18.54h-.02Z"/>
      <ellipse class="cls-7" cx="76.97" cy="50.52" rx="75.97" ry="30.01"/>
      <ellipse class="cls-3" cx="76.12" cy="49.86" rx="55.66" ry="20.66"/>
      <path class="cls-1" d="M76.12,29.2c-30.74,0-55.66,9.25-55.66,20.66,0,.67.09,1.33.26,1.98,2.69-10.48,26.46-18.68,55.4-18.68s52.71,8.2,55.4,18.68c.17-.65.26-1.31.26-1.98,0-11.41-24.92-20.66-55.66-20.66Z"/>
      <g>
        <rect class="cls-5" x="47.67" y="78.37" width="2" height="18.55" transform="translate(-.09 .05) rotate(-.06)"/>
        <rect class="cls-5" x="37.32" y="76.31" width="2" height="18.55" transform="translate(-.09 .04) rotate(-.06)"/>
        <rect class="cls-5" x="27.64" y="73.72" width="2" height="18.55" transform="translate(-.09 .03) rotate(-.06)"/>
        <rect class="cls-5" x="18.14" y="70.03" width="2" height="18.55" transform="translate(-.09 .02) rotate(-.06)"/>
        <polygon class="cls-5" points="12.92 66.57 10.92 65.33 10.92 84.59 12.92 84.59 12.92 66.57"/>
        <polygon class="cls-5" points="6.51 61.79 4.5 59.56 4.5 79.78 6.51 79.78 6.51 61.79"/>
        <rect class="cls-5" x="114.6" y="76.31" width="2" height="18.55"/>
        <rect class="cls-5" x="124.28" y="73.72" width="2" height="18.55"/>
        <rect class="cls-5" x="133.77" y="70.03" width="2" height="18.55"/>
        <polygon class="cls-5" points="140.99 66.57 143 65.33 143 84.59 140.99 84.59 140.99 66.57"/>
        <polygon class="cls-5" points="147.4 61.79 149.41 59.58 149.41 79.78 147.4 79.78 147.4 61.79"/>
        <rect class="cls-5" x="59.24" y="79.83" width="2" height="18.55" transform="translate(-.1 .07) rotate(-.06)"/>
        <rect class="cls-5" x="73.32" y="80.53" width="2" height="18.55" transform="translate(-.1 .08) rotate(-.06)"/>
        <rect class="cls-5" x="87.53" y="80.15" width="2" height="18.55" transform="translate(-.1 .1) rotate(-.06)"/>
        <rect class="cls-5" x="100.46" y="78.95" width="2" height="18.55" transform="translate(-.1 .11) rotate(-.06)"/>
      </g>
      <path class="cls-6" d="M7.75,62.89c27.09,20.63,90.22,20.36,121.48,9.01,5.6-2.03,11.16-4.48,15.92-8.12-4.52,4-10.05,6.69-15.57,9.03-31.11,12.94-95.53,13.06-121.83-9.92h0Z"/>
      <path class="cls-6" d="M76.97,100.08c-9.79,0-19.37-.73-28.45-2.17-.88-.14-1.74-.28-2.59-.43-3.43-.61-6.74-1.31-9.86-2.09,0,0-.1-.02-.1-.02-2.43-.62-4.7-1.26-6.82-1.93-.67-.21-1.31-.42-1.95-.64l-.44-.15c-.62-.21-1.24-.43-1.84-.65-1.32-.49-2.56-.97-3.75-1.48l-.28-.11c-.5-.21-.99-.43-1.47-.65l-.68-.31c-.45-.21-.9-.42-1.34-.64l-.68-.34c-.75-.38-1.47-.76-2.18-1.15l-.24-.13c-.17-.09-.34-.18-.5-.28-.33-.19-.65-.38-.97-.58-.31-.19-.59-.36-.86-.53-.31-.19-.61-.39-.9-.58-.3-.2-.59-.4-.88-.6l-.22-.15c-.18-.13-.36-.25-.53-.38-.49-.36-.96-.72-1.41-1.09-.15-.12-.29-.24-.43-.36l-.16-.13c-.29-.24-.57-.49-.85-.74-.19-.18-.38-.35-.56-.53-.28-.27-.55-.54-.81-.81l-.13-.14c-.1-.11-.21-.21-.31-.32-.38-.42-.74-.83-1.08-1.26-.06-.08-.13-.16-.19-.25l-.09-.13c-.25-.33-.49-.65-.71-.98-.11-.16-.21-.32-.31-.48-.2-.32-.39-.65-.57-.97l-.07-.13c-.06-.1-.11-.21-.17-.31-.25-.5-.46-.96-.63-1.4-.02-.05-.04-.11-.06-.17-.17-.46-.3-.88-.42-1.3-.04-.14-.07-.27-.1-.41-.1-.41-.17-.77-.22-1.13l-.02-.11c-.02-.12-.04-.23-.05-.35-.06-.56-.1-1.05-.1-1.51v-18.55c0-8.45,8.13-16.32,22.88-22.15,14.46-5.71,33.67-8.86,54.09-8.86s39.62,3.15,54.09,8.86c14.76,5.83,22.88,13.69,22.88,22.15v18.55c0,8.45-8.13,16.32-22.88,22.15-14.46,5.71-33.67,8.86-54.09,8.86ZM36.55,93.44c3.08.77,6.34,1.46,9.68,2.05.89.16,1.74.3,2.6.44,8.99,1.43,18.45,2.15,28.14,2.15,41.34,0,74.97-13.01,74.97-29.01v-18.55c0-16-33.63-29.01-74.97-29.01S2,34.53,2,50.52v18.55c0,.38.03.8.08,1.28.01.09.02.18.04.27l.02.12c.05.31.11.61.18.92.04.17.07.29.1.4.1.36.21.72.35,1.07,0,.01.04.12.05.13.17.44.35.84.57,1.28.04.08.09.16.13.24l.08.14c.16.29.33.58.51.87.09.14.18.29.28.44.2.3.41.59.64.89l.25.34c.31.39.64.77.99,1.15.08.09.17.18.26.27l.14.15c.24.25.49.51.75.76.17.17.35.33.53.49.26.23.52.46.8.69l.16.14c.13.11.26.22.39.33.43.35.87.69,1.33,1.03.16.12.32.23.49.35l.23.16c.27.19.55.38.84.58.28.19.57.37.86.56.26.16.53.33.8.49.34.21.65.39.96.57.15.09.31.17.46.26l.25.14c.68.38,1.38.75,2.11,1.11l.66.33c.43.21.86.41,1.3.62l.66.3c.47.21.95.42,1.43.63l.27.11c1.16.49,2.37.97,3.58,1.41.67.25,1.28.46,1.89.67l.44.15c.62.21,1.26.42,1.9.63,2.09.66,4.32,1.29,6.62,1.88l-.05,1.02.24-.97Z"/>
    </g>
    <g>
      <ellipse class="cls-7" cx="86.49" cy="49.55" rx="75.97" ry="30.01"/>
      <rect class="cls-7" x="10.52" y="31.01" width="151.94" height="18.55"/>
      <path class="cls-3" d="M58.18,58.85c-12.43-1.97-23.22-5.21-31.38-9.3-5.47-2.75-9.76-5.88-12.56-9.27-2.4-2.92-3.72-6.04-3.72-9.27v18.55c0,12.62,19.74,23.42,47.68,27.85v-18.54h-.02Z"/>
      <ellipse class="cls-7" cx="86.49" cy="31.01" rx="75.97" ry="30.01"/>
      <ellipse class="cls-4" cx="85.64" cy="30.35" rx="55.66" ry="20.66"/>
      <path class="cls-1" d="M85.64,9.69c-30.74,0-55.66,9.25-55.66,20.66,0,.67.09,1.33.26,1.98,2.69-10.48,26.46-18.68,55.4-18.68s52.71,8.2,55.4,18.68c.17-.65.26-1.31.26-1.98,0-11.41-24.92-20.66-55.66-20.66Z"/>
      <rect class="cls-5" x="57.19" y="58.85" width="2" height="18.55" transform="translate(-.07 .06) rotate(-.06)"/>
      <rect class="cls-5" x="46.84" y="56.8" width="2" height="18.55" transform="translate(-.07 .05) rotate(-.06)"/>
      <rect class="cls-5" x="37.16" y="54.21" width="2" height="18.55" transform="translate(-.07 .04) rotate(-.06)"/>
      <rect class="cls-5" x="27.66" y="50.51" width="2" height="18.55" transform="translate(-.06 .03) rotate(-.06)"/>
      <polygon class="cls-5" points="22.45 47.05 20.44 45.82 20.44 65.07 22.45 65.07 22.45 47.05"/>
      <polygon class="cls-5" points="16.03 42.27 14.02 40.04 14.02 60.26 16.03 60.26 16.03 42.27"/>
      <rect class="cls-5" x="124.12" y="56.8" width="2" height="18.55"/>
      <rect class="cls-5" x="133.8" y="54.21" width="2" height="18.55"/>
      <rect class="cls-5" x="143.3" y="50.51" width="2" height="18.55"/>
      <polygon class="cls-5" points="150.51 47.05 152.52 45.82 152.52 65.07 150.51 65.07 150.51 47.05"/>
      <polygon class="cls-5" points="156.93 42.27 158.94 40.07 158.94 60.26 156.93 60.26 156.93 42.27"/>
      <rect class="cls-5" x="68.76" y="60.32" width="2" height="18.55" transform="translate(-.08 .08) rotate(-.06)"/>
      <rect class="cls-5" x="82.84" y="61.02" width="2" height="18.55" transform="translate(-.08 .09) rotate(-.06)"/>
      <rect class="cls-5" x="97.05" y="60.64" width="2" height="18.55" transform="translate(-.08 .11) rotate(-.06)"/>
      <rect class="cls-5" x="109.99" y="59.43" width="2" height="18.55" transform="translate(-.07 .12) rotate(-.06)"/>
      <path class="cls-6" d="M17.27,43.37c27.09,20.63,90.22,20.36,121.48,9.01,5.6-2.03,11.16-4.48,15.92-8.12-4.52,4-10.05,6.69-15.57,9.03-31.11,12.94-95.53,13.06-121.83-9.92h0Z"/>
      <path class="cls-6" d="M86.49,80.56c-9.79,0-19.37-.73-28.45-2.17-.88-.14-1.74-.28-2.59-.43-3.43-.61-6.74-1.31-9.86-2.09,0,0-.1-.02-.1-.02-2.43-.62-4.7-1.26-6.82-1.93-.67-.21-1.31-.42-1.95-.64l-.44-.15c-.62-.21-1.24-.43-1.84-.65-1.32-.49-2.56-.97-3.75-1.48l-.28-.11c-.5-.21-.99-.43-1.47-.65l-.68-.31c-.45-.21-.9-.42-1.34-.64l-.68-.34c-.75-.38-1.47-.76-2.18-1.15l-.24-.13c-.17-.09-.34-.18-.5-.28-.33-.19-.65-.38-.97-.58-.31-.19-.59-.36-.86-.53-.31-.19-.61-.39-.9-.58-.3-.2-.59-.4-.88-.6l-.22-.15c-.18-.13-.36-.25-.53-.38-.49-.36-.96-.72-1.41-1.09-.15-.12-.29-.24-.43-.36l-.16-.13c-.29-.24-.57-.49-.85-.74-.19-.18-.38-.35-.56-.53-.28-.27-.55-.54-.81-.81l-.13-.14c-.1-.11-.21-.21-.31-.32-.38-.42-.74-.83-1.08-1.26-.06-.08-.13-.16-.19-.25l-.09-.13c-.25-.33-.49-.65-.71-.98-.11-.16-.21-.32-.31-.48-.2-.32-.39-.65-.57-.97l-.07-.13c-.06-.1-.11-.21-.17-.31-.25-.5-.46-.96-.63-1.4-.02-.05-.04-.11-.06-.17-.17-.46-.3-.88-.42-1.3-.04-.14-.07-.27-.1-.41-.1-.41-.17-.77-.22-1.13l-.02-.11c-.02-.12-.04-.23-.05-.35-.06-.56-.1-1.05-.1-1.51v-18.55c0-8.45,8.13-16.32,22.88-22.15C46.87,3.15,66.08,0,86.49,0s39.62,3.15,54.09,8.86c14.76,5.83,22.88,13.69,22.88,22.15v18.55c0,8.45-8.13,16.32-22.88,22.15-14.46,5.71-33.67,8.86-54.09,8.86ZM46.07,73.93c3.08.77,6.34,1.46,9.68,2.05.89.16,1.74.3,2.6.44,8.99,1.43,18.45,2.15,28.14,2.15,41.34,0,74.97-13.01,74.97-29.01v-18.55c0-16-33.63-29.01-74.97-29.01S11.52,15.01,11.52,31.01v18.55c0,.38.03.8.08,1.28.01.09.02.18.04.27l.02.12c.05.31.11.61.18.92.04.17.07.29.1.4.1.36.21.72.35,1.07,0,.01.04.12.05.13.17.44.35.84.57,1.28.04.08.09.16.13.24l.08.14c.16.29.33.58.51.87.09.14.18.29.28.44.2.3.41.59.64.89l.25.34c.31.39.64.77.99,1.15.08.09.17.18.26.27l.14.15c.24.25.49.51.75.76.17.17.35.33.53.49.26.23.52.46.8.69l.16.14c.13.11.26.22.39.33.43.35.87.69,1.33,1.03.16.12.32.23.49.35l.23.16c.27.19.55.38.84.58.28.19.57.37.86.56.26.16.53.33.8.49.34.21.65.39.96.57.15.09.31.17.46.26l.25.14c.68.38,1.38.75,2.11,1.11l.66.33c.43.21.86.41,1.3.62l.66.3c.47.21.95.42,1.43.63l.27.11c1.16.49,2.37.97,3.58,1.41.67.25,1.28.46,1.89.67l.44.15c.62.21,1.26.42,1.9.63,2.09.66,4.32,1.29,6.62,1.88l-.05,1.02.24-.97Z"/>
    </g>
  </g>
</svg>