<?xml version="1.0" encoding="UTF-8"?>
<svg xmlns="http://www.w3.org/2000/svg" width="153.94" height="153.94" viewBox="0 0 153.94 153.94">
  <defs>
    <style>
      .cls-1 {
        fill: none;
      }

      .cls-2 {
        fill: #ffbc42;
      }

      .cls-3 {
        fill: #1e1b18;
      }

      .cls-4 {
        fill: #e59e41;
      }
    </style>
  </defs>
  <rect class="cls-1" width="153.94" height="153.94"/>
  <g id="Calque_1" data-name="Calque 1">
    <g>
      <circle class="cls-2" cx="76.97" cy="76.97" r="75.97"/>
      <circle class="cls-4" cx="76.97" cy="76.97" r="58.57"/>
      <path class="cls-3" d="M135.54,76.97c1.06,32.43-26.26,59.76-58.57,59.57-23.53.2-46.1-15-54.57-36.96-2.81-7.2-4.22-14.93-4-22.6.37,23.11,15.17,44.71,36.5,53.28,37.99,15.53,79.74-12.3,80.63-53.28h0Z"/>
      <path class="cls-3" d="M76.97,153.94C34.53,153.94,0,119.41,0,76.97S34.53,0,76.97,0s76.97,34.53,76.97,76.97-34.53,76.97-76.97,76.97ZM76.97,2C35.63,2,2,35.63,2,76.97s33.63,74.97,74.97,74.97,74.97-33.63,74.97-74.97S118.31,2,76.97,2Z"/>
    </g>
  </g>
</svg>